<svg xmlns="http://www.w3.org/2000/svg" viewBox="0 0 633.49 700.48"><g id="Layer_2" data-name="Layer 2"><g id="Layer_1-2" data-name="Layer 1"><path d="M320.24,329.33H288.09s-21.67-6.29-21.67-25.86V222.38s-57.32,25.17-57.32,92.27S265,409.71,265,409.71V550.9s-8.39,1.4-14-23.76c-3.83-17.26-28-78.29-47.53-107.64S135,316.05,190.93,232.17c0,0,34.95-62.91,128.61-65.7V137.11s-85.27-4.19-145.38,71.3-28,160.76-28,160.76,12.58,30.75,29.35,53.12,41.94,75.49,48.93,118.83,32.15,41.94,32.15,41.94h64.31"/><path d="M318.64,329.33h32.15s21.67-6.29,21.67-25.86V222.38s57.32,25.17,57.32,92.27-55.92,95.06-55.92,95.06V550.9s8.39,1.4,14-23.76c3.84-17.26,28-78.29,47.53-107.64S503.87,316.05,448,232.17c0,0-34.75-62.91-128.41-65.7l-.2-29.36s85.28-4.19,145.39,71.3,28,160.76,28,160.76-12.58,30.75-29.36,53.12-41.94,75.49-48.93,118.83-32.15,41.94-32.15,41.94H317.94"/><path d="M373.46,597h-112a3,3,0,0,0-2.64,1.52l-8.49,10.23a3.07,3.07,0,0,0,0,3.05l8.49,10.23a3.05,3.05,0,0,0,2.64,1.53h112a3.05,3.05,0,0,0,2.64-1.53l8.49-10.23a3.07,3.07,0,0,0,0-3.05l-8.49-10.23A3,3,0,0,0,373.46,597Z"/><path d="M365.55,633.86H269.34a2.62,2.62,0,0,0-2.27,1.31L259.78,644a2.61,2.61,0,0,0,0,2.62l7.29,8.79a2.62,2.62,0,0,0,2.27,1.31h96.21a2.62,2.62,0,0,0,2.27-1.31l7.29-8.79a2.61,2.61,0,0,0,0-2.62l-7.29-8.78A2.62,2.62,0,0,0,365.55,633.86Z"/><path d="M317.45,669.73h49.62c0,16.87-22.4,30.75-49.62,30.75s-49.63-13.88-49.63-30.75v-.14Z"/><path d="M332.12,89.85V11a6,6,0,0,0-2.59-4.93l-7.28-5a6,6,0,0,0-6.81,0l-7.29,5A6,6,0,0,0,305.56,11V89.85a6,6,0,0,0,2.59,4.94l7.29,5a6,6,0,0,0,6.81,0l7.28-5A6,6,0,0,0,332.12,89.85Z"/><path d="M89.85,306.26H11a6,6,0,0,0-4.93,2.59l-5,7.29a6,6,0,0,0,0,6.8l5,7.29A6,6,0,0,0,11,332.82H89.85a6,6,0,0,0,4.94-2.59l5-7.29a6,6,0,0,0,0-6.8l-5-7.29A6,6,0,0,0,89.85,306.26Z"/><path d="M622.47,306.26H543.64a6,6,0,0,0-4.93,2.59l-5,7.29a6,6,0,0,0,0,6.8l5,7.29a6,6,0,0,0,4.93,2.59h78.83a6,6,0,0,0,4.94-2.59l5-7.29a6,6,0,0,0,0-6.8l-5-7.29A6,6,0,0,0,622.47,306.26Z"/><path d="M542,524l-55.74-55.74a6,6,0,0,0-5.32-1.66l-8.71,1.6a6,6,0,0,0-4.81,4.81l-1.6,8.71a6,6,0,0,0,1.66,5.32l55.74,55.74a6,6,0,0,0,5.32,1.66l8.71-1.6a6,6,0,0,0,4.81-4.81l1.6-8.71A6,6,0,0,0,542,524Z"/><path d="M523.25,92.16,467.51,147.9a6,6,0,0,0-1.66,5.32l1.6,8.71a6,6,0,0,0,4.81,4.81l8.71,1.6a6,6,0,0,0,5.32-1.66L542,110.94a6,6,0,0,0,1.66-5.32l-1.6-8.71a6,6,0,0,0-4.81-4.81l-8.71-1.6A6,6,0,0,0,523.25,92.16Z"/><path d="M166,147.9,110.24,92.16a6,6,0,0,0-5.32-1.66l-8.71,1.6a6,6,0,0,0-4.81,4.81l-1.6,8.71a6,6,0,0,0,1.66,5.32l55.74,55.74a6,6,0,0,0,5.32,1.66l8.71-1.6a6,6,0,0,0,4.81-4.81l1.6-8.71A6,6,0,0,0,166,147.9Z"/><path d="M147.2,468.21,91.46,524a6,6,0,0,0-1.66,5.32L91.4,538a6,6,0,0,0,4.81,4.81l8.71,1.6a6,6,0,0,0,5.32-1.66L166,487a6,6,0,0,0,1.66-5.32L166,473a6,6,0,0,0-4.81-4.81l-8.71-1.6A6,6,0,0,0,147.2,468.21Z"/></g></g></svg>