<svg xmlns="http://www.w3.org/2000/svg" viewBox="0 0 576 576"><g id="Layer_2" data-name="Layer 2"><g id="Layer_1-2" data-name="Layer 1"><path d="M288.14,0c2.4,48,3.62,96,4.47,144,.53,24,.65,48,1,72l.31,72-.3,72c-.31,24-.42,48-.95,72-.8,48-2.1,96-4.49,144-2.4-48-3.65-96-4.49-144-.53-24-.64-48-1-72l-.29-72,.31-72c.31-24,.43-48,1-72C284.5,96,285.73,48,288.14,0Z"/><path d="M512.3,111.82C480.06,147.46,447,182.2,413.69,216.76c-16.59,17.34-33.47,34.4-50.21,51.58l-50.67,51.08-51.13,50.67c-17.19,16.74-34.23,33.6-51.57,50.22-34.52,33.33-69.34,66.39-105,98.61,32.24-35.62,65.28-70.43,98.61-105,16.59-17.34,33.48-34.39,50.21-51.56l50.68-51.08,51.12-50.66c17.18-16.74,34.23-33.6,51.56-50.21C441.89,177.12,476.7,144.07,512.3,111.82Z"/><path d="M576,287.93c-48,2.4-96,3.62-144,4.46-24,.54-48,.65-72,1l-72,.32-72-.3c-24-.32-48-.42-72-1-48-.89-96-2.14-144-4.49,48-2.4,96-3.65,144-4.49,24-.53,48-.64,72-1l72-.3,72,.32c24,.31,48,.43,72,1C480,284.27,528,285.53,576,287.93Z"/></g></g></svg>