<svg xmlns="http://www.w3.org/2000/svg" viewBox="0 0 247.72 218.38"><g id="Layer_2" data-name="Layer 2"><g id="Layer_1-2" data-name="Layer 1"><path d="M123.7,0c3.16,1.22,6.4,2.27,9.47,3.7,14.13,6.55,28.2,13.23,42.31,19.83Q203,36.41,230.55,49.27c4,1.87,8,3.71,12.06,5.61,3.64,1.72,5.3,4.34,5.06,7.64-.23,3.11-2.49,4.87-4.73,6.1-13.72,7.52-27.57,14.8-41.35,22.19-9.14,4.91-18.23,9.91-27.38,14.82q-17.36,9.3-34.76,18.53a76.2,76.2,0,0,0-7.69,4.22c-5.22,3.63-10,2.76-15.26-.18-9.26-5.2-18.76-10-28.13-15-10.48-5.6-20.92-11.29-31.4-16.89C48,91.56,39.05,86.91,30.12,82.16c-8.64-4.6-17.33-9.11-25.78-14a10.28,10.28,0,0,1-4.1-5.63c-1-3.46,1.68-5.76,4.29-7.16,5.82-3.13,11.87-5.83,17.85-8.65q12.26-5.78,24.56-11.49Q64.35,27.08,81.77,19c9-4.23,18-8.5,27-12.74,3.56-1.67,7.11-3.38,10.72-4.92a21,21,0,0,1,3.9-.87Z"/><path d="M124.07,218.38c-2.28-.95-4.81-1.77-7.12-3C104.23,208.66,91.57,201.8,78.86,195,63.72,187,48.54,179,33.4,171c-9.6-5.11-19.21-10.21-28.7-15.51-2.27-1.27-4.38-3.09-4.64-6.15-.29-3.41,1.9-5.57,4.29-6.83,7.11-3.74,14.49-7,21.73-10.47,2.24-1.08,3.7.66,5.24,1.47,14.06,7.4,28,15,42.06,22.47,14.25,7.59,28.47,15.24,42.82,22.63,5.82,3,11.91,2.54,17.68-.53q19.85-10.54,39.61-21.2c10.31-5.55,20.6-11.15,30.9-16.72,5-2.7,10-5.43,15.05-8a2.94,2.94,0,0,1,2.29.06c7,3.23,14,6.44,20.88,9.9,2.49,1.26,4.83,3,5.09,6.32.28,3.76-2.15,5.88-4.81,7.34-15,8.19-30.06,16.13-45.09,24.21-12.9,6.93-25.75,13.93-38.64,20.89-9.79,5.28-19.58,10.57-29.42,15.76A36.81,36.81,0,0,1,124.07,218.38Z"/><path d="M124.11,173.64a68.59,68.59,0,0,1-6.86-2.78c-10.36-5.46-20.65-11.08-31-16.58s-20.73-10.92-31.06-16.43C46.05,133,36.93,128,27.78,123.11c-7.66-4.12-15.43-8.06-22.94-12.44a11.46,11.46,0,0,1-4.55-5.55c-1-2.72.82-5.8,4-7.36,6.59-3.27,13.27-6.37,20-9.41a3.72,3.72,0,0,1,2.78.4c9.1,4.81,18.14,9.73,27.22,14.57,10.41,5.54,20.86,11,31.27,16.57,7.9,4.21,15.75,8.51,23.67,12.68a65.68,65.68,0,0,0,10.2,4.79c5.18,1.65,10.26.68,15.06-2,8-4.37,16.08-8.6,24.11-12.91s15.75-8.54,23.64-12.77q13.71-7.35,27.45-14.64c3.84-2,7.73-4,11.47-6.22a3.56,3.56,0,0,1,3.73-.1c6,2.85,12,5.65,17.93,8.51,3.6,1.73,5.21,4.42,4.9,7.75-.28,2.87-2.37,4.55-4.44,5.74-7.47,4.29-15.11,8.28-22.7,12.36q-10.07,5.4-20.15,10.75c-9.3,5-18.61,9.91-27.89,14.9-7.89,4.24-15.75,8.53-23.63,12.8-6.48,3.5-12.93,7.06-19.45,10.47C128,172.81,126.22,173,124.11,173.64Z"/></g></g></svg>